<mxfile host="app.diagrams.net" modified="2022-03-13T06:11:59.499Z" agent="5.0 (Windows NT 10.0; Win64; x64) AppleWebKit/537.36 (KHTML, like Gecko) Chrome/99.0.4844.51 Safari/537.36" etag="gLhrWXJZ8giFavW7cbz1" version="15.9.6" type="github">
  <diagram id="LGUF4Fh2FckbVwkvVZOw" name="Page-1">
    <mxGraphModel dx="813" dy="435" grid="1" gridSize="10" guides="1" tooltips="1" connect="1" arrows="1" fold="1" page="1" pageScale="1" pageWidth="827" pageHeight="1169" math="0" shadow="0">
      <root>
        <mxCell id="0" />
        <mxCell id="1" parent="0" />
        <mxCell id="afcspyIFpeXsXAPImeny-21" value="가격을 어떻게 맵에 넣고 수정해야 할지 고민입니다.&#xa;맵의 맨 마지막에 가격을 넣고, 수정할 때마다 &#xa;맵 밸류의 마지막 인자를 찾는 식으로 접근해야 할지.." style="text;strokeColor=none;fillColor=none;align=center;verticalAlign=middle;spacingLeft=4;spacingRight=4;overflow=hidden;points=[[0,0.5],[1,0.5]];portConstraint=eastwest;rotatable=0;fontSize=7;" vertex="1" parent="1">
          <mxGeometry x="80" y="410" width="330" height="40" as="geometry" />
        </mxCell>
        <mxCell id="afcspyIFpeXsXAPImeny-1" value="피자가게" style="rounded=0;whiteSpace=wrap;html=1;" vertex="1" parent="1">
          <mxGeometry x="80" y="200" width="120" height="60" as="geometry" />
        </mxCell>
        <mxCell id="afcspyIFpeXsXAPImeny-2" value="재료가게" style="rounded=0;whiteSpace=wrap;html=1;" vertex="1" parent="1">
          <mxGeometry x="340" y="200" width="120" height="60" as="geometry" />
        </mxCell>
        <mxCell id="afcspyIFpeXsXAPImeny-3" value="손님" style="rounded=0;whiteSpace=wrap;html=1;" vertex="1" parent="1">
          <mxGeometry x="584" y="200" width="120" height="60" as="geometry" />
        </mxCell>
        <mxCell id="afcspyIFpeXsXAPImeny-28" style="edgeStyle=orthogonalEdgeStyle;rounded=0;orthogonalLoop=1;jettySize=auto;html=1;entryX=0.462;entryY=0.001;entryDx=0;entryDy=0;entryPerimeter=0;fontSize=7;" edge="1" parent="1" source="afcspyIFpeXsXAPImeny-4" target="afcspyIFpeXsXAPImeny-10">
          <mxGeometry relative="1" as="geometry" />
        </mxCell>
        <mxCell id="afcspyIFpeXsXAPImeny-4" value="메뉴" style="swimlane;" vertex="1" parent="1">
          <mxGeometry x="40" y="290" width="200" height="120" as="geometry" />
        </mxCell>
        <mxCell id="afcspyIFpeXsXAPImeny-5" value="1. 메뉴 생성&lt;br&gt;2. 메뉴 수정&lt;br&gt;3. 가격 수정&lt;br&gt;4. 메뉴 삭제" style="text;html=1;align=center;verticalAlign=middle;resizable=0;points=[];autosize=1;strokeColor=none;fillColor=none;" vertex="1" parent="afcspyIFpeXsXAPImeny-4">
          <mxGeometry x="60" y="35" width="80" height="60" as="geometry" />
        </mxCell>
        <mxCell id="afcspyIFpeXsXAPImeny-6" value="메뉴" style="swimlane;" vertex="1" parent="1">
          <mxGeometry x="290" y="290" width="200" height="120" as="geometry" />
        </mxCell>
        <mxCell id="afcspyIFpeXsXAPImeny-7" value="1. 상품 생성&lt;br&gt;2. 상품 수정&lt;br&gt;3. 가격 수정" style="text;html=1;align=center;verticalAlign=middle;resizable=0;points=[];autosize=1;strokeColor=none;fillColor=none;" vertex="1" parent="afcspyIFpeXsXAPImeny-6">
          <mxGeometry x="60" y="40" width="80" height="50" as="geometry" />
        </mxCell>
        <mxCell id="afcspyIFpeXsXAPImeny-8" value="메뉴" style="swimlane;" vertex="1" parent="1">
          <mxGeometry x="540" y="290" width="200" height="120" as="geometry" />
        </mxCell>
        <mxCell id="afcspyIFpeXsXAPImeny-9" value="1. 피자 주문&lt;br&gt;2. 주문 이력 보기" style="text;html=1;align=center;verticalAlign=middle;resizable=0;points=[];autosize=1;strokeColor=none;fillColor=none;" vertex="1" parent="afcspyIFpeXsXAPImeny-8">
          <mxGeometry x="45" y="50" width="110" height="30" as="geometry" />
        </mxCell>
        <mxCell id="afcspyIFpeXsXAPImeny-10" value="1. 메뉴생성" style="swimlane;" vertex="1" parent="1">
          <mxGeometry x="40" y="450" width="215" height="123" as="geometry" />
        </mxCell>
        <mxCell id="afcspyIFpeXsXAPImeny-11" value="1. 피자 이름 : 치즈피자&lt;br style=&quot;font-size: 11px;&quot;&gt;&lt;div style=&quot;font-size: 11px;&quot;&gt;&lt;span style=&quot;font-size: 11px;&quot;&gt;2. 피자 메뉴 :&lt;/span&gt;&lt;/div&gt;밀가루, 토마토 소스, 치즈&lt;br style=&quot;font-size: 11px;&quot;&gt;3. 가격 : 12000원&amp;nbsp;" style="text;html=1;align=center;verticalAlign=middle;resizable=0;points=[];autosize=1;strokeColor=none;fillColor=none;fontSize=11;" vertex="1" parent="afcspyIFpeXsXAPImeny-10">
          <mxGeometry x="32.5" y="40" width="140" height="60" as="geometry" />
        </mxCell>
        <mxCell id="afcspyIFpeXsXAPImeny-47" value="menu.txt" style="text;html=1;strokeColor=none;fillColor=none;align=center;verticalAlign=middle;whiteSpace=wrap;rounded=0;fontSize=7;" vertex="1" parent="afcspyIFpeXsXAPImeny-10">
          <mxGeometry x="158" y="93" width="60" height="30" as="geometry" />
        </mxCell>
        <mxCell id="afcspyIFpeXsXAPImeny-15" value="메뉴/상품 이름 통일해서 같은 함수로 할지 고민중입니다." style="text;strokeColor=none;fillColor=none;align=center;verticalAlign=middle;spacingLeft=4;spacingRight=4;overflow=hidden;points=[[0,0.5],[1,0.5]];portConstraint=eastwest;rotatable=0;fontSize=7;" vertex="1" parent="1">
          <mxGeometry x="170" y="370" width="190" height="40" as="geometry" />
        </mxCell>
        <mxCell id="afcspyIFpeXsXAPImeny-23" style="edgeStyle=orthogonalEdgeStyle;rounded=0;orthogonalLoop=1;jettySize=auto;html=1;exitX=0.5;exitY=1;exitDx=0;exitDy=0;entryX=0.5;entryY=0;entryDx=0;entryDy=0;fontSize=7;" edge="1" parent="1" source="afcspyIFpeXsXAPImeny-16" target="afcspyIFpeXsXAPImeny-19">
          <mxGeometry relative="1" as="geometry" />
        </mxCell>
        <mxCell id="afcspyIFpeXsXAPImeny-16" value="2. 메뉴 수정" style="swimlane;" vertex="1" parent="1">
          <mxGeometry x="40" y="614" width="200" height="125" as="geometry" />
        </mxCell>
        <mxCell id="afcspyIFpeXsXAPImeny-17" value="메뉴 선택&lt;br&gt;1. 치즈피자&lt;br&gt;2. 하와이안피자&lt;br&gt;3. 마르게따 피자" style="text;html=1;align=center;verticalAlign=middle;resizable=0;points=[];autosize=1;strokeColor=none;fillColor=none;" vertex="1" parent="afcspyIFpeXsXAPImeny-16">
          <mxGeometry x="50" y="35" width="100" height="60" as="geometry" />
        </mxCell>
        <mxCell id="afcspyIFpeXsXAPImeny-48" value="menu.txt" style="text;html=1;strokeColor=none;fillColor=none;align=center;verticalAlign=middle;whiteSpace=wrap;rounded=0;fontSize=7;" vertex="1" parent="afcspyIFpeXsXAPImeny-16">
          <mxGeometry x="145" y="98" width="60" height="30" as="geometry" />
        </mxCell>
        <mxCell id="afcspyIFpeXsXAPImeny-19" value="1. 치즈피자" style="swimlane;" vertex="1" parent="1">
          <mxGeometry x="40" y="764" width="200" height="120" as="geometry" />
        </mxCell>
        <mxCell id="afcspyIFpeXsXAPImeny-20" value="1. 재료 변경&lt;br&gt;2. 가격 변경&lt;br&gt;3. 메뉴이름 변경" style="text;html=1;align=center;verticalAlign=middle;resizable=0;points=[];autosize=1;strokeColor=none;fillColor=none;" vertex="1" parent="afcspyIFpeXsXAPImeny-19">
          <mxGeometry x="50" y="40" width="100" height="50" as="geometry" />
        </mxCell>
        <mxCell id="afcspyIFpeXsXAPImeny-33" value="1. 상품 생성" style="swimlane;" vertex="1" parent="1">
          <mxGeometry x="290" y="450" width="215" height="120" as="geometry">
            <mxRectangle x="290" y="450" width="100" height="23" as="alternateBounds" />
          </mxGeometry>
        </mxCell>
        <mxCell id="afcspyIFpeXsXAPImeny-34" value="1. 상품 이름 : 치즈&lt;br style=&quot;font-size: 11px&quot;&gt;2. 가격 : 3000원" style="text;html=1;align=center;verticalAlign=middle;resizable=0;points=[];autosize=1;strokeColor=none;fillColor=none;fontSize=11;" vertex="1" parent="afcspyIFpeXsXAPImeny-33">
          <mxGeometry x="47.5" y="55" width="110" height="30" as="geometry" />
        </mxCell>
        <mxCell id="afcspyIFpeXsXAPImeny-46" value="&#xa;&#xa;&lt;br style=&quot;color: rgb(0, 0, 0); font-family: helvetica; font-size: 11px; font-style: normal; font-weight: 400; letter-spacing: normal; text-align: center; text-indent: 0px; text-transform: none; word-spacing: 0px; background-color: rgb(248, 249, 250);&quot;&gt;&lt;span style=&quot;color: rgb(0, 0, 0); font-family: helvetica; font-size: 11px; font-style: normal; font-weight: 400; letter-spacing: normal; text-align: center; text-indent: 0px; text-transform: none; word-spacing: 0px; background-color: rgb(248, 249, 250); display: inline; float: none;&quot;&gt;ingredient.txt&lt;/span&gt;&#xa;&#xa;" style="text;html=1;strokeColor=none;fillColor=none;align=center;verticalAlign=middle;whiteSpace=wrap;rounded=0;fontSize=7;" vertex="1" parent="afcspyIFpeXsXAPImeny-33">
          <mxGeometry x="150" y="89" width="60" height="30" as="geometry" />
        </mxCell>
        <mxCell id="afcspyIFpeXsXAPImeny-35" style="edgeStyle=orthogonalEdgeStyle;rounded=0;orthogonalLoop=1;jettySize=auto;html=1;exitX=0.5;exitY=1;exitDx=0;exitDy=0;entryX=0.5;entryY=0;entryDx=0;entryDy=0;fontSize=7;" edge="1" parent="1" source="afcspyIFpeXsXAPImeny-36" target="afcspyIFpeXsXAPImeny-38">
          <mxGeometry relative="1" as="geometry" />
        </mxCell>
        <mxCell id="afcspyIFpeXsXAPImeny-36" value="2. 상품 수정" style="swimlane;" vertex="1" parent="1">
          <mxGeometry x="290" y="614" width="205" height="125" as="geometry" />
        </mxCell>
        <mxCell id="afcspyIFpeXsXAPImeny-37" value="상품 선택&lt;br&gt;1. 치즈&lt;br&gt;2. 밀가루&lt;br&gt;3. 고기" style="text;html=1;align=center;verticalAlign=middle;resizable=0;points=[];autosize=1;strokeColor=none;fillColor=none;" vertex="1" parent="afcspyIFpeXsXAPImeny-36">
          <mxGeometry x="65" y="35" width="70" height="60" as="geometry" />
        </mxCell>
        <mxCell id="afcspyIFpeXsXAPImeny-51" value="&#xa;&#xa;&lt;br style=&quot;color: rgb(0, 0, 0); font-family: helvetica; font-size: 11px; font-style: normal; font-weight: 400; letter-spacing: normal; text-align: center; text-indent: 0px; text-transform: none; word-spacing: 0px; background-color: rgb(248, 249, 250);&quot;&gt;&lt;span style=&quot;color: rgb(0, 0, 0); font-family: helvetica; font-size: 11px; font-style: normal; font-weight: 400; letter-spacing: normal; text-align: center; text-indent: 0px; text-transform: none; word-spacing: 0px; background-color: rgb(248, 249, 250); display: inline; float: none;&quot;&gt;ingredient.txt&lt;/span&gt;&#xa;&#xa;" style="text;html=1;strokeColor=none;fillColor=none;align=center;verticalAlign=middle;whiteSpace=wrap;rounded=0;fontSize=7;" vertex="1" parent="afcspyIFpeXsXAPImeny-36">
          <mxGeometry x="141" y="95" width="60" height="30" as="geometry" />
        </mxCell>
        <mxCell id="afcspyIFpeXsXAPImeny-38" value="1. 치즈" style="swimlane;" vertex="1" parent="1">
          <mxGeometry x="290" y="764" width="200" height="120" as="geometry" />
        </mxCell>
        <mxCell id="afcspyIFpeXsXAPImeny-39" value="1. 상품명 변경&lt;br&gt;2. 가격 변경" style="text;html=1;align=center;verticalAlign=middle;resizable=0;points=[];autosize=1;strokeColor=none;fillColor=none;" vertex="1" parent="afcspyIFpeXsXAPImeny-38">
          <mxGeometry x="55" y="50" width="90" height="30" as="geometry" />
        </mxCell>
        <mxCell id="afcspyIFpeXsXAPImeny-42" style="edgeStyle=orthogonalEdgeStyle;rounded=0;orthogonalLoop=1;jettySize=auto;html=1;entryX=0.5;entryY=0;entryDx=0;entryDy=0;fontSize=7;" edge="1" parent="1" source="afcspyIFpeXsXAPImeny-40" target="afcspyIFpeXsXAPImeny-2">
          <mxGeometry relative="1" as="geometry">
            <Array as="points">
              <mxPoint x="400" y="140" />
            </Array>
          </mxGeometry>
        </mxCell>
        <mxCell id="afcspyIFpeXsXAPImeny-43" style="edgeStyle=orthogonalEdgeStyle;rounded=0;orthogonalLoop=1;jettySize=auto;html=1;entryX=0.5;entryY=0;entryDx=0;entryDy=0;fontSize=7;" edge="1" parent="1" source="afcspyIFpeXsXAPImeny-40" target="afcspyIFpeXsXAPImeny-1">
          <mxGeometry relative="1" as="geometry" />
        </mxCell>
        <mxCell id="afcspyIFpeXsXAPImeny-44" style="edgeStyle=orthogonalEdgeStyle;rounded=0;orthogonalLoop=1;jettySize=auto;html=1;entryX=0.5;entryY=0;entryDx=0;entryDy=0;fontSize=7;" edge="1" parent="1" source="afcspyIFpeXsXAPImeny-40" target="afcspyIFpeXsXAPImeny-3">
          <mxGeometry relative="1" as="geometry" />
        </mxCell>
        <mxCell id="afcspyIFpeXsXAPImeny-40" value="로그인&lt;br&gt;1. 일반로그인&lt;br&gt;2. 파트너 로그인&amp;nbsp;" style="rounded=0;whiteSpace=wrap;html=1;fontSize=7;" vertex="1" parent="1">
          <mxGeometry x="339.5" y="20" width="120" height="60" as="geometry" />
        </mxCell>
        <mxCell id="afcspyIFpeXsXAPImeny-45" value="" style="endArrow=classic;startArrow=classic;html=1;rounded=0;fontSize=7;entryX=0.006;entryY=0.569;entryDx=0;entryDy=0;entryPerimeter=0;" edge="1" parent="1">
          <mxGeometry width="50" height="50" relative="1" as="geometry">
            <mxPoint x="199" y="232" as="sourcePoint" />
            <mxPoint x="340" y="232.07" as="targetPoint" />
            <Array as="points" />
          </mxGeometry>
        </mxCell>
        <mxCell id="afcspyIFpeXsXAPImeny-49" value="map&amp;lt;name, &amp;lt;menu&amp;gt;&amp;gt; pizzaMenu" style="text;html=1;strokeColor=none;fillColor=none;align=center;verticalAlign=middle;whiteSpace=wrap;rounded=0;fontSize=7;" vertex="1" parent="1">
          <mxGeometry x="40" y="570" width="180" height="30" as="geometry" />
        </mxCell>
        <mxCell id="afcspyIFpeXsXAPImeny-50" value="map&amp;lt;name, &amp;lt;ingredient&amp;gt;&amp;gt; ingredient" style="text;html=1;strokeColor=none;fillColor=none;align=center;verticalAlign=middle;whiteSpace=wrap;rounded=0;fontSize=7;" vertex="1" parent="1">
          <mxGeometry x="290" y="569" width="180" height="30" as="geometry" />
        </mxCell>
      </root>
    </mxGraphModel>
  </diagram>
</mxfile>
